<?xml version="1.0" encoding="UTF-8"?>
<!DOCTYPE svg PUBLIC "-//W3C//DTD SVG 1.1//EN" "http://www.w3.org/Graphics/SVG/1.1/DTD/svg11.dtd">
<svg xmlns="http://www.w3.org/2000/svg" version="1.1" width="24px" height="24px" style="shape-rendering:geometricPrecision; text-rendering:geometricPrecision; image-rendering:optimizeQuality; fill-rule:evenodd; clip-rule:evenodd" xmlns:xlink="http://www.w3.org/1999/xlink">
<g><path style="opacity:1" fill="#f0f0f0" d="M 8.5,17.5 C 8.45444,14.5683 8.95444,11.9016 10,9.5C 9,10.5 8,11.5 7,12.5C 5.95054,11.4829 4.78387,11.3162 3.5,12C 6.55105,13.3605 7.21772,15.5272 5.5,18.5C 5.95689,19.2975 6.62356,19.6309 7.5,19.5C 5.5,20.1667 3.5,20.8333 1.5,21.5C 0.833333,21.1667 0.166667,20.8333 -0.5,20.5C -0.5,19.5 -0.5,18.5 -0.5,17.5C 2.63228,9.40994 8.63228,4.90994 17.5,4C 17.1667,3.66667 16.8333,3.33333 16.5,3C 18.728,2.17987 20.728,2.5132 22.5,4C 19.3333,6.5 16.1667,9 13,11.5C 12.1667,14.5 11.3333,17.5 10.5,20.5C 9.08149,19.9953 8.41483,18.9953 8.5,17.5 Z"/></g>
<g><path style="opacity:0.953" fill="#171717" d="M 23.5,1.5 C 23.5,3.16667 23.5,4.83333 23.5,6.5C 21.321,6.83997 19.4877,7.83997 18,9.5C 16.7338,13.3951 16.2338,17.3951 16.5,21.5C 11.5,21.5 6.5,21.5 1.5,21.5C 3.5,20.8333 5.5,20.1667 7.5,19.5C 7.32842,18.5084 7.66175,17.8417 8.5,17.5C 8.41483,18.9953 9.08149,19.9953 10.5,20.5C 11.3333,17.5 12.1667,14.5 13,11.5C 16.1667,9 19.3333,6.5 22.5,4C 20.728,2.5132 18.728,2.17987 16.5,3C 16.8333,3.33333 17.1667,3.66667 17.5,4C 8.63228,4.90994 2.63228,9.40994 -0.5,17.5C -0.5,15.8333 -0.5,14.1667 -0.5,12.5C 5.45649,4.65778 13.4565,0.991116 23.5,1.5 Z"/></g>
<g><path style="opacity:1" fill="#5c5c5c" d="M 8.5,17.5 C 7.66175,17.8417 7.32842,18.5084 7.5,19.5C 6.62356,19.6309 5.95689,19.2975 5.5,18.5C 7.21772,15.5272 6.55105,13.3605 3.5,12C 4.78387,11.3162 5.95054,11.4829 7,12.5C 8,11.5 9,10.5 10,9.5C 8.95444,11.9016 8.45444,14.5683 8.5,17.5 Z"/></g>
<g><path style="opacity:1" fill="#eeeeee" d="M 14.5,11.5 C 15.0967,11.7352 15.4301,12.2352 15.5,13C 14.8392,15.464 14.3392,17.964 14,20.5C 12.3156,17.5014 12.4823,14.5014 14.5,11.5 Z"/></g>
</svg>
